<?xml version="1.0" encoding="utf-8"?>
<!-- Generator: Adobe Illustrator 25.4.1, SVG Export Plug-In . SVG Version: 6.00 Build 0)  -->
<svg version="1.1" id="Layer_1" xmlns="http://www.w3.org/2000/svg" xmlns:xlink="http://www.w3.org/1999/xlink" x="0px" y="0px"
	 viewBox="0 0 846.3 718.1" style="enable-background:new 0 0 846.3 718.1;" xml:space="preserve">
<style type="text/css">
	.st0{fill:#141414;}
	.st1{fill:#75DFBC;}
	.st2{fill:#EA6911;}
</style>
<path class="st0" d="M610.8,547.6c-1.3-6.3-2.3-12.4-2.3-21.4v-99.6c0-39.4-35.4-55.5-77.8-55.5c-60.1,0-78.8,33.7-80.5,60.1h46.1
	c1-15.4,12.7-25.4,32.4-25.4c21,0,33.7,10,33.7,30.4v8l-44.4,2.7c-67.2,4-73.2,34.4-73.2,52.8c0,39.1,33.1,52.5,60.1,52.5
	c20,0,42.8-6,58.8-27.1h0.7v22.4L610.8,547.6L610.8,547.6z M562.4,488.5c0,20.7-24.4,29.1-39.4,29.1c-16,0-30.1-4.7-30.1-20
	c0-12.4,7.4-19,29.4-21.1l40.1-3.7V488.5z"/>
<path class="st0" d="M400.8,326.4h-48.1v49.4h-13.4h-8.6v36.7h8.6h13.4v92.2c0,37.1,19.1,44.8,50.5,44.8c7.7,0,15.4-1,23-2v-37.7
	c-3,0.7-5.7,1-9.7,1c-12.4,0-15.7-3.7-15.7-11.4v-86.9h25.4v-36.7h-25.4V326.4z"/>
<path class="st0" d="M234,371.2c-51.8,0-87.9,35.4-87.9,90.9c0,54.8,36.1,90.2,87.9,90.2c36.2,0,65.2-14.8,79.2-43
	c1.6-3.3,3.1-6.8,4.3-10.4l-4.3-0.3l-42.5-3.3c-6.7,13.4-19.7,20.4-34.4,20.4c-25.7,0-38.1-20-40.1-40.1h117h8.6v-13.4
	c0-16.1-3.1-30.5-8.6-42.9C299.6,389.1,270.8,371.2,234,371.2z M196.3,444.7c2.7-19.4,15-36.8,40.1-36.8c23,0,35.7,20,37.4,36.8
	H196.3z"/>
<path class="st0" d="M619.2,167.1c-14.4,0-33.4,4-50.4,26.7c-12-23.7-34.7-26.7-46.1-26.7c-19.7,0-36.4,4.3-51.8,27.1h-0.7v-22.4
	h-46.1v171.7h48.1V239.3c0-16.7,7.3-33.4,27.1-33.4c20.1,0,26.1,13.7,26.1,31.7v105.9h48V236.6c0-13.7,9-30.7,27.4-30.7
	s25.7,13.7,25.7,27.1v110.6h48.1V220.3C674.7,184.2,648.6,167.1,619.2,167.1z"/>
<path class="st0" d="M340.7,167.1c-19.4,0-36.4,6.3-50.8,27.1h-0.7v-22.4h-46.1v171.7h48.1v-97.6c0-23.4,12-40.1,31.4-40.1
	c15,0,30.1,8.3,30.1,33.1v70.2h48.1v-82.2C400.9,193.9,382.2,167.1,340.7,167.1z"/>
<rect x="171.7" y="171.8" class="st0" width="48.1" height="171.7"/>
<path class="st1" d="M195.8,90.3c-14.9,0-26.3,12.3-27.9,25.3v6c1.6,12.4,13,24.8,27.9,24.8c15.4,0,28.1-13.7,28.1-28.4
	C223.8,102.7,210.1,90.3,195.8,90.3z"/>
<rect x="1129.8" y="199.5" transform="matrix(-1 -1.224647e-16 1.224647e-16 -1 2311.5706 570.7)" class="st2" width="52" height="171.7"/>
</svg>
